<svg width="689.5" height="537" version="1.1" baseProfile="full" viewbox="0 0 689.5 537" xmlns="http://www.w3.org/2000/svg" xmlns:xlink="http://www.w3.org/1999/xlink" xmlns:ev="http://www.w3.org/2001/xml-events" style="font-weight:bold; font-size:12pt; font-family:'Calibri', Helvetica, sans-serif;;stroke-width:3;stroke-linejoin:round;stroke-linecap:round"><path d="M98.5 44.5 L98.5 64.5 L104.3 84.5 L104.3 84.5 " style="stroke:#33322E;fill:none;stroke-dasharray:6 6;"></path>
<path d="M103.8 57.8 L98.5 57.8 L93.2 57.8 L98.5 44.5 Z" style="stroke:#33322E;fill:#eee8d5;stroke-dasharray:none;"></path>
<text x="24.8" y="352.5" style="font-weight:normal;">0..7</text>
<path d="M80.6 320.5 L70.8 340.5 L70.8 360.5 L70.8 360.5 " style="stroke:#33322E;fill:none;stroke-dasharray:none;"></path>
<path d="M276.6 44.5 L218.3 64.5 L206.7 84.5 L206.7 84.5 " style="stroke:#33322E;fill:none;stroke-dasharray:none;"></path>
<path d="M208.7 70.3 L210 78.7 L218 75.6 L206.7 84.5 Z" style="stroke:#33322E;fill:#33322E;stroke-dasharray:none;"></path>
<path d="M321.3 44.5 L320.8 64.5 L320.8 202.5 L320.8 202.5 L320.8 340.5 L320.8 340.5 L320.8 376 L320.8 376 L320.8 411.5 L320.8 411.5 L272 437.8 L272 437.8 " style="stroke:#33322E;fill:none;stroke-dasharray:none;"></path>
<path d="M281.2 426.8 L277.9 434.6 L286.3 436.2 L272 437.8 Z" style="stroke:#33322E;fill:#33322E;stroke-dasharray:none;"></path>
<path d="M338.8 44.5 L360.8 64.5 L360.8 202.5 L360.8 202.5 L360.8 340.5 L360.8 340.5 L279.8 364 L279.8 364 " style="stroke:#33322E;fill:none;stroke-dasharray:none;"></path>
<path d="M291.1 355.1 L286.2 362.1 L294 365.4 L279.8 364 Z" style="stroke:#33322E;fill:#33322E;stroke-dasharray:none;"></path>
<text x="177" y="423.5" style="font-weight:normal;">*</text>
<path d="M154.1 320.5 L156.8 340.5 L156.8 376 L156.8 376 L156.8 411.5 L156.8 411.5 L169 431.5 L169 431.5 " style="stroke:#33322E;fill:none;stroke-dasharray:none;"></path>
<path d="M157.5 422.9 L165.5 425.8 L166.6 417.3 L169 431.5 Z" style="stroke:#33322E;fill:#33322E;stroke-dasharray:none;"></path>
<path d="M223.8 320.5 L238.3 340.5 L238.3 360.5 L238.3 360.5 " style="stroke:#33322E;fill:none;stroke-dasharray:none;"></path>
<path d="M232.9 347.2 L238.3 353.8 L243.6 347.2 L238.3 360.5 Z" style="stroke:#33322E;fill:#33322E;stroke-dasharray:none;"></path>
<path d="M238.3 391.5 L238.3 411.5 L226 431.5 L226 431.5 " style="stroke:#33322E;fill:none;stroke-dasharray:none;"></path>
<path d="M228.4 417.3 L229.5 425.8 L237.5 422.9 L226 431.5 Z" style="stroke:#33322E;fill:#33322E;stroke-dasharray:none;"></path>
<path d="M243.6 404.8 L238.3 398.2 L232.9 404.8 L238.3 391.5 Z" style="stroke:#33322E;fill:#33322E;stroke-dasharray:none;"></path>
<path d="M611 42.1 L585.3 64.5 L585.3 187 L585.3 187 " style="stroke:#33322E;fill:none;stroke-dasharray:none;"></path>
<path d="M579.9 173.7 L585.3 180.3 L590.6 173.7 L585.3 187 Z" style="stroke:#33322E;fill:#33322E;stroke-dasharray:none;"></path>
<path d="M585.3 218 L585.3 340.5 L608.2 360.5 L608.2 360.5 " style="stroke:#33322E;fill:none;stroke-dasharray:none;"></path>
<path d="M594.7 355.8 L603.2 356.1 L601.7 347.7 L608.2 360.5 Z" style="stroke:#33322E;fill:#33322E;stroke-dasharray:none;"></path>
<path d="M643.8 360.5 L666.8 340.5 L666.8 202.5 L666.8 202.5 L666.8 64.5 L666.8 64.5 L641 42.1 L641 42.1 " style="stroke:#33322E;fill:none;stroke-dasharray:none;"></path>
<path d="M654.6 46.8 L646 46.4 L647.6 54.8 L641 42.1 Z" style="stroke:#33322E;fill:#33322E;stroke-dasharray:none;"></path>
<text x="634" y="411.5" style="font-weight:normal;">no</text>
<path d="M626 391.5 L626 411.5 L626 463 L626 463 " style="stroke:#33322E;fill:none;stroke-dasharray:none;"></path>
<path d="M620.7 449.7 L626 456.3 L631.3 449.7 L626 463 Z" style="stroke:#33322E;fill:#33322E;stroke-dasharray:none;"></path>
<path d="M452.8 44.5 L452.8 64.5 L452.8 179.5 L452.8 179.5 " style="stroke:#33322E;fill:none;stroke-dasharray:none;"></path>
<rect x="13.5" y="84.5" height="236" width="250" style="stroke:#33322E;fill:#eee8d5;stroke-dasharray:none;"></rect>
<text x="138.5" y="106" style="text-anchor: middle;">Pirate</text>
<path d="M13.5 115.5 L263.5 115.5" style="stroke:#33322E;fill:none;stroke-dasharray:none;"></path>
<text x="21.5" y="137" style="font-weight:normal;">eyeCount: Int</text>
<path d="M13.5 146.5 L263.5 146.5" style="stroke:#33322E;fill:none;stroke-dasharray:none;"></path>
<text x="21.5" y="168" style="font-weight:normal;">raid()</text>
<text x="21.5" y="183" style="font-weight:normal;">pillage()</text>
<path d="M13.5 192.5 L263.5 192.5" style="stroke:#33322E;fill:none;stroke-dasharray:none;"></path>
<path d="M100.2 236.5 L63 256.5 L63 276.5 L63 276.5 " style="stroke:#33322E;fill:none;stroke-dasharray:6 6;"></path>
<path d="M157.8 236.5 L195 256.5 L195 276.5 L195 276.5 " style="stroke:#33322E;fill:none;stroke-dasharray:none;"></path>
<path d="M189.7 263.2 L195 263.2 L200.3 263.2 L195 276.5 Z" style="stroke:#33322E;fill:#eee8d5;stroke-dasharray:none;"></path>
<rect x="97.5" y="205.5" height="31" width="64" style="stroke:#33322E;fill:#fdf6e3;stroke-dasharray:none;"></rect>
<text x="129.5" y="227" style="text-anchor: middle;">beard</text>
<rect x="26.5" y="276.5" height="31" width="73" style="stroke:#33322E;fill:#fdf6e3;stroke-dasharray:none;"></rect>
<text x="63" y="298" style="text-anchor: middle;">parrot</text>
<rect x="139.5" y="276.5" height="31" width="111" style="stroke:#33322E;fill:#fdf6e3;stroke-dasharray:none;"></rect>
<text x="195" y="298" style="text-anchor: middle;">foul mouth</text>
<rect x="123.5" y="431.5" height="93" width="149" style="stroke:#33322E;fill:#eee8d5;stroke-dasharray:none;"></rect>
<text x="198" y="453" style="text-anchor: middle;">rum</text>
<path d="M123.5 462.5 L272.5 462.5" style="stroke:#33322E;fill:none;stroke-dasharray:none;"></path>
<text x="131.5" y="484" style="font-weight:normal;">tastiness: Int</text>
<path d="M123.5 493.5 L272.5 493.5" style="stroke:#33322E;fill:none;stroke-dasharray:none;"></path>
<text x="131.5" y="515" style="font-weight:normal;">swig()</text>
<rect x="50.5" y="13.5" height="31" width="97" style="stroke:#33322E;fill:#eee8d5;stroke-dasharray:none;"></rect>
<text x="99" y="35" style="font-weight:normal;font-style:italic;text-anchor: middle;">Marauder</text>
<rect x="24.5" y="360.5" height="31" width="92" style="stroke:#33322E;fill:#eee8d5;stroke-dasharray:none;"></rect>
<text x="70.5" y="382" style="text-anchor: middle;">mischief</text>
<rect x="270.5" y="13.5" height="31" width="102" style="stroke:#33322E;fill:#eee8d5;stroke-dasharray:none;"></rect>
<text x="321.5" y="35" style="text-anchor: middle;">jollyness</text>
<rect x="196.5" y="360.5" height="31" width="83" style="stroke:#33322E;fill:#eee8d5;stroke-dasharray:none;"></rect>
<text x="238" y="382" style="text-anchor: middle;">singing</text>
<circle r="12" cx="626" cy="29.5" style="stroke:none; fill:#33322E;"></circle>
<rect x="543.5" y="187.5" rx="15.5" ry="15.5" height="31" width="83" style="stroke:#33322E;fill:#eee8d5;stroke-dasharray:none;"></rect>
<text x="585" y="209" style="font-weight:normal;text-anchor: middle;">plunder</text>
<path d="M626 352.5 L685.5 376 L626 399.5 L567.5 376 Z" style="stroke:#33322E;fill:#eee8d5;stroke-dasharray:none;"></path>
<text x="626.5" y="382" style="font-weight:normal;text-anchor: middle;">more loot</text>
<circle r="10" cx="626" cy="478.5" style="stroke:#33322E;fill:#eee8d5;stroke-dasharray:none;"></circle>
<circle r="6" cx="626" cy="478.5" style="stroke:none; fill:#33322E;"></circle>
<circle r="4" cx="452.8" cy="11.5" style="stroke:#33322E;fill:#eee8d5;stroke-dasharray:none;"></circle>
<path d="M452.8 15.5 L452.8 23.5" style="stroke:#33322E;fill:none;stroke-dasharray:none;"></path>
<path d="M448.8 19.5 L456.8 19.5" style="stroke:#33322E;fill:none;stroke-dasharray:none;"></path>
<path d="M448.8 27.5 L452.8 23.5 L456.8 27.5" style="stroke:#33322E;fill:none;stroke-dasharray:none;"></path>
<text x="453" y="41" style="font-weight:normal;text-anchor: middle;">Sailor</text>
<ellipse cx="452.8" cy="202.5" rx="51" ry="23" style="stroke:#33322E;fill:#eee8d5;stroke-dasharray:none;"></ellipse>
<text x="452.5" y="201" style="font-weight:normal;text-anchor: middle;">shiver me</text>
<text x="452.5" y="216" style="font-weight:normal;text-anchor: middle;">timbers</text></svg>